<svg width="40" height="40" viewBox="0 0 40 40" fill="none" xmlns="http://www.w3.org/2000/svg">
  <path d="M20 5C12.268 5 6 11.268 6 19C6 26.732 12.268 33 20 33C27.732 33 34 26.732 34 19C34 11.268 27.732 5 20 5Z" fill="#2563eb"/>
  <path d="M20 8C14.477 8 10 12.477 10 18C10 23.523 14.477 28 20 28C25.523 28 30 23.523 30 18C30 12.477 25.523 8 20 8Z" fill="#60a5fa"/>
  <path d="M16 14C16 13.4477 16.4477 13 17 13H23C23.5523 13 24 13.4477 24 14V22C24 22.5523 23.5523 23 23 23H17C16.4477 23 16 22.5523 16 22V14Z" fill="white"/>
  <circle cx="20" cy="16" r="1.5" fill="#2563eb"/>
  <circle cx="20" cy="20" r="1.5" fill="#2563eb"/>
</svg>
